<svg xmlns="http://www.w3.org/2000/svg" viewBox="0 0 299.61 224.52"><defs><style>.cls-1{fill:#231f20;stroke:#231f20;stroke-miterlimit:10;}.cls-2{fill:#fff;}</style></defs><g id="Layer_2" data-name="Layer 2"><path class="cls-1" d="M1,54.71s-3.88-21.3,26.14-23.24,65.83,0,65.83,0S90.1,5.33,99.79,4.36c3.88-.39,14.34-3.19,39.7-3.74,16.61-.36,47.91-.09,59,3.65C206,6.77,206,14.67,206.28,17a73.79,73.79,0,0,1,0,15.49h75.51s14.53-1,16.46,22.27,0,148.12,0,148.12-1,19.36-12.58,20.33-268.18,0-268.18,0S12.65,227,6.84,218.32s-7.1-10.65-6-36.79S1,54.71,1,54.71Z"/></g><g id="Layer_3" data-name="Layer 3"><path class="cls-2" d="M135.36,55.7s2.71,6.58,1.94,20.9-1.55,15.87-4.65,22.84-19.74,26.81-25.16,32.95-14.32,17-18.19,25.5S83.49,168,80.78,179.18s-5,13.16-6.58,14.71-8.52-4.26-7.74-10.06-3.6-12.39-.06-17,1.22-8.13-6.13,2.71-5.42,17.41-3.88,20.9.41,7.35,5.43,10.06,11.22,4.65,15.09,4.26,7.74-.77,9.29,1.94-2.08,3.09,10,4.25,30.66,0,37.62,0,7.93-4.1,5.86-6-1.68-2.41-5.16-3.18,1-1,4.11,1.37,5.65,2.81,6.81,2a5.57,5.57,0,0,0,0-8.52c-3.87-3.48-7.12-3-9.83-4.51s-5.27-2.84.15-7.87,9.07-6.4,7-15.88c-3.1-13.93,1.26-11.22,1.59-8.51s2.66,22.84,4.6,28.64c1.44,4.33,2.53,10.51,5.21,16,.91,1.89,3.65,6.92,4.7,7.57,5.2,3.22,16,1.55,17.57,1.17s3.9-6.6.42-7.76c-1.66-.55-4.05-3.15-6-3a5.77,5.77,0,0,1-5.63-4c-1.16-4.65-.78-6.58-.39-12s1.94,10.45,3.1,13.16,5,3.87,7,3.87,1.54,3.87,5.8,4.64,9.68,1.17,10.45-1.16.78-3.48-4.25-6.19-8.13-1.94-9.29-4.26-2.33-12.77-3.1-27.09-2.32-23.23,3.1-31,7.35-20.52,1.54-33.29-2.71-25.55-1.16-27.49a65.39,65.39,0,0,1,13.54-11.22c5.82-3.49,5.82-8.52,3.88-8.52s-8.9,2.32-9.29.78,3.49-3.1,4.65-7.36,3.09-8.9-.39-11.22-12.39,5-15.1,5-7.74-3.87-12.77-3.87a56,56,0,0,0-11.23,1.54,9.26,9.26,0,0,0-1.55-5c-1.54-1.93-3.09,2.33-3.09,4.26s-.78,6.58-3.87,1.94-5-8.52-8.52-10.07-1.16,7.36-.77,11.23S131.88,51.44,135.36,55.7Z"/></g></svg>